<?xml version="1.0" encoding="utf-8"?>
<!-- Generator: Adobe Illustrator 25.4.1, SVG Export Plug-In . SVG Version: 6.00 Build 0)  -->
<svg version="1.1" id="Layer_1" xmlns="http://www.w3.org/2000/svg" xmlns:xlink="http://www.w3.org/1999/xlink" x="0px" y="0px"
	 viewBox="0 0 42 42" style="enable-background:new 0 0 42 42;" xml:space="preserve">
<style type="text/css">
	.st0{fill:#209894;}
	.st1{opacity:0.2;fill:#209894;}
</style>
<g>
	<path class="st0" d="M36.5,23.7c0.4,0,0.8,0,1.2,0c0.8,0,1.5,0.5,1.7,1.2c0.2,0.7,0,1.5-0.6,2c-0.4,0.3-0.8,0.4-1.3,0.4
		c-1.4,0-2.8,0-4.2,0c-0.2,0-0.4,0.1-0.5,0.3c-0.2,0.4-0.5,0.8-0.7,1.2c-0.1,0.3-0.3,0.4-0.6,0.4c-2.3,0-4.6,0-6.8,0
		c-0.1,0-0.2,0-0.4,0c0,3.3,0,6.5,0,9.8c0.1,0,0.3,0,0.4,0c2.7,0,5.3,0,8,0c0.4,0,0.6,0.1,0.6,0.4c0,0.3-0.1,0.5-0.4,0.5
		c-0.1,0-0.2,0-0.4,0c-7.2,0-14.4,0-21.6,0c-0.1,0-0.2,0-0.4,0c-0.3,0-0.4-0.2-0.4-0.5c0-0.3,0.1-0.4,0.4-0.5c0.1,0,0.2,0,0.3,0
		c2.6,0,5.1,0,7.7,0c0.1,0,0.3,0,0.4,0c0-3.3,0-6.5,0-9.8c-0.1,0-0.3,0-0.4,0c-2.3,0-4.5,0-6.8,0c-0.3,0-0.5-0.1-0.7-0.4
		c-0.2-0.4-0.4-0.8-0.6-1.2c-0.1-0.2-0.2-0.3-0.5-0.3c-2.3,0-4.6,0-7,0c-0.5,0-0.8-0.1-0.8-0.5c0-0.4,0.2-0.5,0.8-0.5
		c11.4,0,22.8,0,34.2,0c0.2,0,0.3,0,0.5,0c0.4,0,0.7-0.4,0.7-0.8c0-0.4-0.3-0.8-0.7-0.8c-0.1,0-0.3,0-0.5,0c-11.3,0-22.6,0-33.9,0
		c-0.2,0-0.4,0-0.5,0c-0.3,0-0.5-0.2-0.5-0.5c0-0.3,0.2-0.5,0.5-0.5c0.1,0,0.2,0,0.3,0c3.2,0,6.3,0,9.5,0c0.1,0,0.3,0,0.4,0
		c-0.2-0.7-0.1-1.3,0.3-1.8c0.5-0.5,1.1-0.6,1.7-0.5c0-0.4,0-0.7,0-1.1c-0.2,0-0.3,0-0.4,0c-3.8,0-7.7,0-11.5,0c-0.1,0-0.3,0-0.4,0
		c-0.3-0.1-0.4-0.2-0.4-0.5c0-0.3,0.2-0.4,0.4-0.5c0.1,0,0.2,0,0.4,0c9.2,0,18.4,0,27.7,0c0.3,0,0.5-0.1,0.7-0.3
		c1.2-1.4,3.3-1.6,4.7-0.4c1.4,1.2,1.7,3.3,0.6,4.7C36.8,23.4,36.7,23.5,36.5,23.7z M30.8,20.3c-4.9,0-9.7,0-14.6,0c0,0.4,0,0.7,0,1
		c0.1,0,0.3,0,0.4,0c3.8,0,7.6,0,11.4,0c0.1,0,0.2,0,0.3,0c0.3,0,0.5,0.2,0.4,0.5c0,0.3-0.2,0.4-0.4,0.5c-0.1,0-0.2,0-0.4,0
		c-4.3,0-8.7,0-13,0c-0.2,0-0.3,0-0.5,0C14.2,22.4,14,22.7,14,23c0,0.3,0.3,0.6,0.6,0.6c0.1,0,0.2,0,0.3,0c5.4,0,10.9,0,16.3,0
		c0.1,0,0.2,0,0.4,0C30.8,22.7,30.5,21.6,30.8,20.3z M20.2,29.1c0,3.3,0,6.5,0,9.7c0.4,0,0.7,0,1.1,0c0-0.2,0-0.3,0-0.4
		c0-2.5,0-4.9,0-7.4c0-0.1,0-0.3,0-0.4c0.1-0.1,0.3-0.3,0.4-0.4c0.2-0.1,0.4,0.1,0.5,0.3c0,0.1,0,0.2,0,0.4c0,2.5,0,5,0,7.5
		c0,0.1,0,0.2,0,0.4c0.5,0,0.9,0,1.3,0c0-3.3,0-6.5,0-9.7C22.4,29.1,21.3,29.1,20.2,29.1z M34.1,23.7c1.3,0,2.5-1.1,2.5-2.4
		c0-1.3-1.1-2.5-2.4-2.5c-1.3,0-2.4,1.1-2.5,2.4C31.6,22.5,32.7,23.6,34.1,23.7z M11.6,27.3c0.1,0.1,0.1,0.2,0.1,0.3
		c0.2,0.5,0.5,0.6,0.9,0.6c6.1,0,12.2,0,18.3,0c0.1,0,0.2,0,0.3,0c0.1,0,0.2,0,0.2-0.1c0.1-0.2,0.3-0.5,0.4-0.7
		C25.2,27.3,18.4,27.3,11.6,27.3z"/>
	<path class="st0" d="M25.6,7.6c-0.3,0.8-0.8,1.3-1.4,1.7c-0.1,0-0.1,0.2-0.1,0.3c0,0.9,0,1.7,0,2.6c0,0.1,0.1,0.3,0.2,0.3
		c0.6,0.3,0.9,0.8,0.8,1.5c0,0.1,0.1,0.3,0.1,0.4c1,1.2,0.6,3-0.8,3.6c-0.2,0.1-0.4,0-0.6-0.1c-0.1-0.1-0.2-0.3-0.1-0.5
		c0.1-0.2,0.2-0.3,0.4-0.4c0.7-0.4,0.9-1.3,0.4-1.9c-0.6,0.4-1.3,0.4-1.9,0c-0.5,0.5-0.4,1.5,0.3,1.9c0.1,0,0.2,0.1,0.2,0.1
		c0.2,0.1,0.3,0.4,0.3,0.6C23.3,18,23,18.1,22.8,18c-0.8-0.2-1.4-1.1-1.4-1.9c0-0.6,0.2-1.2,0.6-1.7C22,14.3,22,14.2,22,14
		c0-0.7,0.3-1.2,0.8-1.5c0.1,0,0.2-0.1,0.2-0.2c0-0.8,0-1.7,0-2.6c-1,0.1-1.9-0.1-2.6-0.7c-0.7,0.8-1.4,1.6-2.1,2.4
		c-0.1,0.1-0.1,0.2-0.2,0.2c-0.3,0.3-0.5,0.6-0.3,1.1c0.2,0.4,0,0.8-0.3,1.2c0.4,0.4,0.7,0.7,1.1,1.1c-0.3,0.2-0.5,0.5-0.8,0.7
		c0.4,0.4,0.7,0.7,1.1,1.1c0.3,0.3,0.3,0.6,0.1,0.8c-0.2,0.2-0.5,0.2-0.8-0.1c-0.3-0.3-0.7-0.7-1.1-1c-0.2,0.2-0.4,0.4-0.7,0.7
		c-1.4-1.4-2.7-2.8-4.1-4.3c0.3-0.2,0.5-0.5,0.8-0.7c-0.2-0.1-0.3-0.2-0.4-0.3c-0.1,0.1-0.2,0.2-0.3,0.3c-0.2,0.2-0.5,0.2-0.6,0
		c-0.2-0.2-0.2-0.4,0-0.6c0.4-0.4,0.9-0.9,1.3-1.3c0.2-0.2,0.4-0.2,0.6,0c0.2,0.2,0.2,0.5,0,0.7c-0.1,0.1-0.2,0.2-0.3,0.3
		c0.1,0.1,0.1,0.1,0.1,0.2c0,0.1,0.1,0.1,0.2,0.2c0.3-0.3,0.5-0.5,0.8-0.7c0.3,0.3,0.5,0.5,0.8,0.8c0.1,0.1,0.2,0.2,0.4,0.1
		c0.3-0.2,0.7-0.2,1.1-0.1c0.1,0,0.2,0,0.3,0c0.9-1,1.8-2.1,2.7-3.2c-2-2-4.1-4.1-6.1-6.1c0.2,0,0.3,0,0.4,0c2.8,0,5.6,0,8.4,0
		c0.2,0,0.4,0.1,0.5,0.2c0.6,0.6,1.2,1.2,1.9,1.8c0.6,0.6,1,1.3,1,2.2c0,0.1,0.1,0.2,0.2,0.3c1.2,0.8,2.4,1.5,3.6,2.3
		c0.1,0.1,0.2,0,0.3,0C30.4,8.6,31,8.6,31.5,9c0.5,0.4,0.7,0.9,0.6,1.5c0,0.2,0,0.2,0.2,0.3c0.9,0.6,1,1.6,0.1,2.3
		C31.2,14.1,30,15,28.9,16c-0.3,0.3-0.6,0.3-0.8,0.1c-0.3-0.2-0.3-0.5-0.1-0.9c0.5-1.2,1.1-2.3,1.6-3.5c0.1-0.2,0.1-0.3-0.1-0.5
		c-0.3-0.3-0.4-0.7-0.4-1.1c0-0.1,0-0.3-0.1-0.3C27.9,9.1,26.8,8.3,25.6,7.6z M16,3.1c0,0.1,0,0.1,0.1,0.1c1.7,1.7,3.3,3.3,5,5
		c0.5,0.5,1.1,0.6,1.7,0.6c0.9-0.1,1.6-0.6,1.9-1.5C25,6.4,24.8,5.6,24.1,5c-0.5-0.5-1.1-1.1-1.6-1.6c-0.2-0.2-0.3-0.2-0.6-0.2
		c-1.9,0-3.7,0-5.6,0C16.3,3.1,16.2,3.1,16,3.1z M13.7,12.9c0.9,0.9,1.8,1.8,2.6,2.7c0,0,0.1,0.1,0.2,0.1c0.2-0.3,0.5-0.5,0.7-0.8
		c-0.2-0.2-0.4-0.5-0.9-0.5c-0.8,0-1.5-0.8-1.4-1.6c0-0.4-0.1-0.5-0.4-0.7C14.2,12.4,13.9,12.7,13.7,12.9z M29.5,14.1
		C29.5,14.1,29.5,14.1,29.5,14.1c0.8-0.6,1.6-1.2,2.4-1.8c0.1-0.1,0.1-0.4,0.1-0.4c-0.2-0.1-0.4-0.3-0.6-0.3c-0.2,0-0.5,0.1-0.7,0.2
		c-0.1,0-0.2,0.1-0.2,0.1C30.1,12.7,29.8,13.4,29.5,14.1z M30.6,9.7c-0.3,0-0.6,0.3-0.5,0.6c0,0.3,0.3,0.5,0.5,0.5
		c0.3,0,0.6-0.3,0.5-0.6C31.2,10,30.9,9.7,30.6,9.7z M24.1,13.9c0-0.3-0.2-0.5-0.5-0.5c-0.3,0-0.6,0.2-0.6,0.6
		c0,0.3,0.3,0.6,0.6,0.5C23.9,14.4,24.1,14.2,24.1,13.9z M16.9,13c0-0.3-0.2-0.5-0.5-0.5c-0.3,0-0.6,0.2-0.6,0.5
		c0,0.3,0.2,0.5,0.5,0.5C16.6,13.5,16.9,13.3,16.9,13z"/>
	<path class="st1" d="M29.8,20.3c-0.3,1.3,0,2.4,0.9,3.4c-0.2,0-0.3,0-0.4,0c-5.4,0-10.9,0-16.3,0c-0.1,0-0.2,0-0.3,0
		c-0.3,0-0.6-0.3-0.6-0.6c0-0.3,0.2-0.6,0.5-0.7c0.2,0,0.3,0,0.5,0c4.3,0,8.7,0,13,0c0.1,0,0.2,0,0.4,0c0.3,0,0.4-0.2,0.4-0.5
		c0-0.3-0.2-0.5-0.4-0.5c-0.1,0-0.2,0-0.3,0c-3.8,0-7.6,0-11.4,0c-0.1,0-0.2,0-0.4,0c0-0.4,0-0.7,0-1C20.1,20.3,24.9,20.3,29.8,20.3
		z"/>
	<path class="st1" d="M19.2,29.1c1.1,0,2.2,0,3.3,0c0,3.2,0,6.5,0,9.7c-0.4,0-0.8,0-1.3,0c0-0.1,0-0.3,0-0.4c0-2.5,0-5,0-7.5
		c0-0.1,0-0.2,0-0.4c-0.1-0.2-0.3-0.4-0.5-0.3c-0.2,0-0.3,0.2-0.4,0.4c-0.1,0.1,0,0.2,0,0.4c0,2.5,0,4.9,0,7.4c0,0.1,0,0.3,0,0.4
		c-0.4,0-0.7,0-1.1,0C19.2,35.6,19.2,32.4,19.2,29.1z"/>
	<path class="st1" d="M33.1,23.7c-1.3,0-2.4-1.1-2.4-2.5c0-1.3,1.1-2.4,2.5-2.4c1.3,0,2.4,1.1,2.4,2.5
		C35.5,22.6,34.4,23.7,33.1,23.7z"/>
	<path class="st1" d="M10.6,27.3c6.8,0,13.5,0,20.3,0c-0.1,0.3-0.3,0.5-0.4,0.7c0,0.1-0.1,0.1-0.2,0.1c-0.1,0-0.2,0-0.3,0
		c-6.1,0-12.2,0-18.3,0c-0.5,0-0.8-0.1-0.9-0.6C10.7,27.5,10.7,27.4,10.6,27.3z"/>
	<path class="st1" d="M15,3.1c0.1,0,0.2,0,0.4,0c1.9,0,3.7,0,5.6,0c0.2,0,0.4,0.1,0.6,0.2C22,3.9,22.6,4.4,23.1,5
		c0.6,0.7,0.8,1.5,0.5,2.3c-0.3,0.9-1,1.4-1.9,1.5c-0.7,0.1-1.3-0.1-1.7-0.6c-1.7-1.6-3.3-3.3-5-5C15.1,3.2,15.1,3.2,15,3.1z
		 M22.2,6c0-0.7-0.5-1.2-1.2-1.2c-0.7,0-1.2,0.5-1.2,1.2c0,0.7,0.5,1.2,1.2,1.2C21.7,7.2,22.2,6.6,22.2,6z"/>
	<path class="st1" d="M12.7,12.9c0.3-0.3,0.5-0.5,0.8-0.8c0.2,0.2,0.4,0.4,0.4,0.7c-0.1,0.8,0.6,1.6,1.4,1.6c0.5,0,0.7,0.2,0.9,0.5
		c-0.2,0.3-0.5,0.5-0.7,0.8c-0.1-0.1-0.1-0.1-0.2-0.1C14.4,14.8,13.5,13.9,12.7,12.9z"/>
	<path class="st1" d="M28.5,14.1c0.3-0.7,0.7-1.5,1-2.2c0-0.1,0.1-0.1,0.2-0.1c0.2-0.1,0.5-0.2,0.7-0.2c0.2,0,0.4,0.2,0.6,0.3
		c0.1,0,0,0.3-0.1,0.4C30.1,12.9,29.3,13.5,28.5,14.1C28.5,14.1,28.5,14.1,28.5,14.1z"/>
	<path class="st1" d="M29.6,9.7c0.3,0,0.5,0.2,0.6,0.5c0,0.3-0.2,0.6-0.5,0.6c-0.3,0-0.5-0.2-0.5-0.5C29.1,10,29.3,9.7,29.6,9.7z"/>
	<path class="st1" d="M23.1,13.9c0,0.3-0.2,0.5-0.5,0.6c-0.3,0-0.6-0.2-0.6-0.5c0-0.3,0.3-0.6,0.6-0.6
		C22.9,13.4,23.1,13.6,23.1,13.9z"/>
	<path class="st1" d="M15.9,13c0,0.3-0.3,0.5-0.6,0.5c-0.3,0-0.5-0.3-0.5-0.5c0-0.3,0.3-0.5,0.6-0.5C15.7,12.5,15.9,12.7,15.9,13z"
		/>
	<path class="st0" d="M23.2,6c0,0.7-0.5,1.2-1.2,1.2c-0.7,0-1.2-0.5-1.2-1.2c0-0.7,0.5-1.2,1.2-1.2C22.7,4.8,23.3,5.3,23.2,6z
		 M21.7,5.9C21.9,6,22,6.2,22,6.2c0.1,0,0.2-0.1,0.2-0.2c-0.1-0.1-0.1-0.2-0.2-0.2C22,5.8,21.9,5.8,21.7,5.9z"/>
	<path class="st1" d="M20.7,5.9c0.2-0.1,0.2-0.2,0.3-0.2c0.1,0,0.1,0.1,0.2,0.2C21.2,6,21.1,6.2,21,6.2C21,6.2,20.9,6,20.7,5.9z"/>
</g>
</svg>
