<?xml version="1.0" encoding="utf-8"?>
<!-- Generator: Adobe Illustrator 25.4.1, SVG Export Plug-In . SVG Version: 6.00 Build 0)  -->
<svg version="1.1" id="Layer_1" xmlns="http://www.w3.org/2000/svg" xmlns:xlink="http://www.w3.org/1999/xlink" x="0px" y="0px"
	 viewBox="0 0 42 42" style="enable-background:new 0 0 42 42;" xml:space="preserve">
<style type="text/css">
	.st0{fill:#209894;}
	.st1{opacity:0.2;fill:#209894;}
</style>
<g>
	<path class="st0" d="M1.4,41.2c-0.4-0.3-0.6-0.6-0.4-0.9c0.1-0.2,0.4-0.3,0.6-0.4c0.2-0.1,0.4,0,0.7,0c0-0.7,0-1.3,0-1.9
		c0-0.7,0.2-0.9,0.9-0.9c0.6,0,1.2,0,1.9,0c0-0.2,0-0.3,0-0.4c0-1.4,0-2.8,0-4.2c0-0.6,0.1-0.8,0.7-1c0-0.3,0-0.7,0-1
		c0-1,0.4-1.7,1.2-2.1c0.2-0.1,0.3-0.2,0.3-0.5c-0.1-0.4,0-0.8,0-1.2c0-0.3,0.1-0.6,0-0.8c-2-6.2-4.1-12.3-6.2-18.5
		C0.7,6,1.2,4.9,2.3,4.5c0.8-0.2,1.7,0,2.2,0.7C4.7,5.3,4.8,5.4,5,5.4c4.6-0.9,9.1-1.8,13.7-2.6c0.2,0,0.3-0.1,0.3-0.3
		c0.3-0.9,1.1-1.5,2-1.5c0.9,0,1.7,0.7,1.9,1.6c0.2,0.9-0.2,1.8-1,2.2c-0.2,0.1-0.3,0.2-0.3,0.5c0,1.3,0,2.5,0,3.8
		c0,0.2,0.1,0.3,0.3,0.5c0.7,0.4,1.1,1,1.1,1.8c0,0.8,0,1.5,0,2.3c0,0.2,0.1,0.4,0.3,0.5c0.7,0.4,1.3,0.9,2,1.3
		c0.4,0.2,0.5,0.5,0.5,0.9c0,0.2,0,0.4,0,0.7c0.2,1-0.2,1.9-0.7,2.8c-0.2,0.4-0.6,0.5-0.9,0.4c-0.3-0.2-0.4-0.5-0.3-0.9
		c0.1-0.2,0.2-0.4,0.3-0.6c-0.8-0.3-1.6-0.5-2.4-0.8c-0.6-0.2-1.1-0.2-1.7,0c-0.8,0.3-1.6,0.5-2.4,0.8c0.1,0.2,0.2,0.5,0.3,0.7
		c0.2,0.4,0,0.8-0.3,0.9c-0.3,0.2-0.7,0-0.9-0.3c-0.8-1.2-0.8-2.5-0.7-3.8c0-0.2,0.2-0.4,0.4-0.5c0.7-0.5,1.4-0.9,2.1-1.4
		c0.2-0.1,0.3-0.3,0.3-0.5c0-0.7,0-1.5,0-2.2c0-0.9,0.4-1.5,1.2-1.9c0.1-0.1,0.2-0.2,0.2-0.4c0-1.3,0-2.6,0-3.9
		c0-0.1-0.1-0.3-0.3-0.4c-0.2-0.2-0.5-0.4-0.7-0.6C19.3,4,19.2,4,19,4c-4.4,0.9-8.9,1.7-13.3,2.6c-0.1,0-0.3,0.1-0.4,0.1
		C5.3,7,5.4,7.3,5.5,7.6c1.9,5.7,3.8,11.3,5.7,17c0.1,0.2,0.2,0.4,0.4,0.5c0.9,0.7,1.2,1.6,1,2.8c0,0.1,0.1,0.3,0.1,0.4
		c1,0.5,1.4,1.4,1.3,2.5c0,0.3,0,0.5,0,0.8c1,0,1.9,0,2.8,0c0-0.1,0-0.3,0-0.4c0-1.8,0-3.5,0-5.3c0-0.2-0.1-0.5-0.3-0.6
		c-0.7-0.7-1.5-1.5-2.2-2.2c-0.2-0.2-0.3-0.4-0.3-0.6c0-0.2,0.2-0.5,0.4-0.5c0.2-0.1,0.5,0,0.7,0.2c0.5,0.4,1,0.9,1.4,1.4
		c0.4,0.4,0.7,0.9,1.2,1.1c0.5,0.2,1.1,0.1,1.6,0.1c1.5,0,3,0,4.4,0c0.2,0,0.4-0.1,0.5-0.2c0.8-0.7,1.5-1.5,2.3-2.2
		c0.2-0.2,0.5-0.4,0.8-0.3c0.5,0.2,0.6,0.7,0.2,1.1c-0.6,0.6-1.2,1.3-1.8,1.8c-0.5,0.5-0.7,1-0.7,1.7c0.1,1.7,0,3.3,0,5
		c1,0,1.9,0,2.9,0c0-0.1,0-0.3,0-0.4c0-1.9,0-3.7,0-5.6c0-0.7,0.2-0.9,0.9-0.9c2.1,0,4.3,0,6.4,0c0.7,0,0.9,0.2,0.9,0.9
		c0,1.8,0,3.7,0,5.5c0,0.1,0,0.3,0,0.4c0.4,0.1,0.8,0.1,1.1,0.2c1.9,0.5,3.3,2,3.7,3.9c0,0.1,0,0.1,0.1,0.2c0,0.4,0,0.8,0,1.2
		c0,0.1-0.1,0.1-0.1,0.2c-0.2,1.3-0.9,2.4-2,3.2c-0.7,0.5-1.4,0.7-2.2,0.9C25.1,41.2,13.2,41.2,1.4,41.2z M25.2,39.9
		c2.7,0,5.4,0,8.1,0c1.1,0,2.3,0,3.4,0c2.1-0.1,3.6-2.4,3-4.4c-0.5-1.7-1.8-2.6-3.6-2.6c-7.3,0-14.6,0-21.9,0c-0.2,0-0.4,0-0.6,0
		c-1.3,0.2-2.3,0.9-2.8,2.1c-0.5,1.3-0.3,2.5,0.5,3.6c0.8,0.9,1.8,1.3,2.9,1.3C18,39.9,21.6,39.9,25.2,39.9z M18.2,31.5
		c1.9,0,3.8,0,5.6,0c0-1.9,0-3.7,0-5.6c-1.9,0-3.7,0-5.6,0C18.2,27.8,18.2,29.6,18.2,31.5z M29.4,31.5c1.9,0,3.7,0,5.6,0
		c0-1.9,0-3.7,0-5.6c-0.7,0-1.4,0-2.1,0c0,0.5,0,0.9,0,1.3c0,0.5-0.3,0.8-0.7,0.7c-0.4,0-0.6-0.3-0.6-0.8c0-0.4,0-0.9,0-1.3
		c-0.7,0-1.4,0-2.1,0C29.4,27.8,29.4,29.6,29.4,31.5z M2.9,8.6C4.7,14,6.5,19.5,8.4,25c0.5-0.2,0.9-0.3,1.4-0.5
		C7.9,19,6.1,13.5,4.3,8.1C3.8,8.3,3.4,8.4,2.9,8.6z M9.3,37.1c-0.2-1.6,0.3-3,1.4-4.2c-1.5,0-2.9,0-4.3,0c0,1.4,0,2.8,0,4.2
		C7.4,37.1,8.3,37.1,9.3,37.1z M8,29.3c-0.9,0.5-1.1,1.1-0.8,2.2c1.8,0,3.7,0,5.6,0c0-0.3,0-0.6,0-0.8c0.1-0.7-0.2-1.2-0.9-1.4
		C10.6,30.3,9.3,30.3,8,29.3z M3.6,39.8c2.4,0,4.7,0,7.1,0c-0.3-0.4-0.6-0.7-0.8-1.1c-0.1-0.2-0.3-0.3-0.6-0.3c-1.8,0-3.5,0-5.3,0
		c-0.1,0-0.3,0-0.4,0C3.6,38.9,3.6,39.3,3.6,39.8z M11.3,27.3c0-0.8-0.6-1.4-1.4-1.4c-0.8,0-1.4,0.6-1.4,1.4c0,0.8,0.7,1.5,1.4,1.5
		C10.7,28.7,11.3,28.1,11.3,27.3z M20.4,14.6c-0.8,0.6-1.6,1.1-2.4,1.6c-0.6,0.4-0.6,0.4-0.4,1.1c0.9-0.3,1.9-0.6,2.8-0.9
		C20.4,15.8,20.4,15.3,20.4,14.6z M21.7,14.6c0,0.6,0,1.1,0,1.6c0,0.1,0.1,0.2,0.2,0.3c0.9,0.3,1.8,0.6,2.8,0.9
		c-0.1-0.4,0-0.8-0.2-0.9C23.6,15.8,22.7,15.3,21.7,14.6z M20.3,13.1c0.5-0.5,1-0.5,1.4,0c0-0.7,0-1.3,0-1.9c0-0.4-0.3-0.6-0.7-0.6
		c-0.4,0-0.7,0.2-0.7,0.6C20.3,11.8,20.3,12.4,20.3,13.1z M3.7,6.4C3.7,6,3.4,5.7,3,5.7C2.6,5.7,2.2,6,2.2,6.4
		c0,0.4,0.3,0.8,0.7,0.8C3.3,7.2,3.7,6.8,3.7,6.4z M21.8,3c0-0.4-0.3-0.7-0.7-0.7c-0.4,0-0.7,0.3-0.7,0.7c0,0.4,0.3,0.7,0.7,0.7
		C21.4,3.7,21.8,3.4,21.8,3z"/>
	<path class="st1" d="M37.9,40.2c0.8-0.2,1.5-0.4,2.2-0.9c1.1-0.8,1.8-1.8,2-3.2c0-0.1,0-0.1,0.1-0.2c0,1.4,0,2.8,0,4.2
		C40.8,40.2,39.3,40.2,37.9,40.2z"/>
	<path class="st1" d="M26.2,38.9c-3.6,0-7.3,0-10.9,0c-1.2,0-2.2-0.4-2.9-1.3c-0.9-1.1-1.1-2.3-0.5-3.6c0.5-1.2,1.5-1.9,2.8-2.1
		c0.2,0,0.4,0,0.6,0c7.3,0,14.6,0,21.9,0c1.8,0,3.1,1,3.6,2.6c0.6,2-0.9,4.3-3,4.4c-1.1,0.1-2.3,0-3.4,0
		C31.6,38.9,28.9,38.9,26.2,38.9z M28.3,35.3c0-1.1-0.9-2-2-2c-1.1,0-2.1,0.9-2.1,2c0,1.1,0.9,2,2,2C27.3,37.4,28.3,36.5,28.3,35.3z
		 M20.7,33.3c-1.1,0-2.1,0.9-2.1,2c0,1.1,0.9,2,2,2c1.1,0,2-0.9,2-2C22.7,34.2,21.8,33.3,20.7,33.3z M35.3,35.4c0,1.1,0.9,2,2,2
		c1.1,0,2.1-0.9,2.1-2.1c0-1.1-0.9-2-2-2C36.2,33.3,35.3,34.2,35.3,35.4z M15.1,33.3c-1.1,0-2.1,0.9-2.1,2c0,1.1,0.9,2,2,2.1
		c1.1,0,2.1-0.9,2.1-2C17.1,34.2,16.2,33.3,15.1,33.3z M31.8,33.3c-1.1,0-2.1,0.8-2.1,2c0,1.1,0.9,2.1,2,2.1c1.1,0,2-0.9,2.1-2
		C33.9,34.3,32.9,33.3,31.8,33.3z"/>
	<path class="st1" d="M19.2,30.5c0-1.9,0-3.7,0-5.6c1.9,0,3.7,0,5.6,0c0,1.9,0,3.7,0,5.6C23,30.5,21.1,30.5,19.2,30.5z"/>
	<path class="st1" d="M30.4,30.5c0-1.9,0-3.7,0-5.6c0.7,0,1.4,0,2.1,0c0,0.4,0,0.9,0,1.3c0,0.4,0.2,0.7,0.6,0.8
		c0.4,0.1,0.7-0.3,0.7-0.7c0-0.4,0-0.9,0-1.3c0.7,0,1.4,0,2.1,0c0,1.9,0,3.7,0,5.6C34.1,30.5,32.3,30.5,30.4,30.5z"/>
	<path class="st1" d="M3.9,7.6c0.5-0.2,0.9-0.3,1.4-0.5c1.8,5.4,3.6,10.9,5.5,16.4c-0.5,0.2-0.9,0.3-1.4,0.5
		C7.5,18.5,5.7,13,3.9,7.6z"/>
	<path class="st1" d="M10.3,36.1c-1,0-1.9,0-2.9,0c0-1.4,0-2.8,0-4.2c1.4,0,2.8,0,4.3,0C10.6,33.1,10.1,34.4,10.3,36.1z"/>
	<path class="st1" d="M9,28.3c1.3,1.1,2.6,1.1,3.9,0c0.7,0.2,1,0.7,0.9,1.4c0,0.3,0,0.5,0,0.8c-1.9,0-3.7,0-5.6,0
		C7.8,29.4,8.1,28.7,9,28.3z"/>
	<path class="st1" d="M4.6,38.8c0-0.5,0-0.9,0-1.4c0.1,0,0.3,0,0.4,0c1.8,0,3.5,0,5.3,0c0.3,0,0.4,0.1,0.6,0.3
		c0.2,0.4,0.5,0.7,0.8,1.1C9.3,38.8,7,38.8,4.6,38.8z"/>
	<path class="st1" d="M12.3,26.3c0,0.8-0.7,1.4-1.4,1.4c-0.8,0-1.5-0.7-1.4-1.5c0-0.8,0.7-1.4,1.4-1.4
		C11.7,24.9,12.3,25.5,12.3,26.3z"/>
	<path class="st1" d="M21.4,13.6c0,0.6,0,1.2,0,1.8c-0.9,0.3-1.9,0.6-2.8,0.9c-0.1-0.7-0.1-0.8,0.4-1.1
		C19.8,14.7,20.5,14.2,21.4,13.6z"/>
	<path class="st1" d="M22.7,13.6c1,0.7,1.9,1.2,2.8,1.9c0.2,0.1,0.1,0.5,0.2,0.9c-1-0.3-1.9-0.6-2.8-0.9c-0.1,0-0.2-0.2-0.2-0.3
		C22.7,14.7,22.7,14.2,22.7,13.6z"/>
	<path class="st1" d="M21.3,12.1c0-0.7,0-1.3,0-1.9c0-0.4,0.3-0.6,0.7-0.6c0.4,0,0.7,0.3,0.7,0.6c0,0.6,0,1.2,0,1.9
		C22.3,11.7,21.8,11.6,21.3,12.1z"/>
	<path class="st1" d="M4.7,5.4c0,0.4-0.3,0.7-0.7,0.7c-0.4,0-0.7-0.3-0.7-0.8C3.2,5,3.6,4.7,4,4.7C4.4,4.7,4.7,5,4.7,5.4z"/>
	<path class="st1" d="M22.8,2c0,0.4-0.3,0.7-0.7,0.7c-0.4,0-0.7-0.3-0.7-0.7c0-0.4,0.3-0.7,0.7-0.7C22.5,1.2,22.8,1.6,22.8,2z"/>
	<path class="st0" d="M27.3,36.3c0,1.1-0.9,2.1-2.1,2c-1.1,0-2-0.9-2-2c0-1.1,0.9-2,2.1-2C26.3,34.3,27.2,35.2,27.3,36.3z
		 M25.2,37.1c0.4,0,0.7-0.3,0.7-0.7c0-0.4-0.3-0.7-0.7-0.7c-0.4,0-0.7,0.3-0.7,0.7C24.5,36.8,24.8,37.1,25.2,37.1z"/>
	<path class="st0" d="M19.7,34.3c1.1,0,2,0.9,2,2.1c0,1.1-0.9,2-2,2c-1.1,0-2-0.9-2-2C17.6,35.2,18.5,34.3,19.7,34.3z M19.6,37.1
		c0.4,0,0.7-0.3,0.7-0.7c0-0.4-0.3-0.7-0.7-0.8c-0.4,0-0.8,0.3-0.8,0.7C18.9,36.7,19.3,37.1,19.6,37.1z"/>
	<path class="st0" d="M34.3,36.4c0-1.1,0.9-2,2-2c1.1,0,2,0.9,2,2c0,1.1-0.9,2.1-2.1,2.1C35.2,38.4,34.3,37.5,34.3,36.4z M37.1,36.3
		c0-0.4-0.4-0.7-0.7-0.7c-0.4,0-0.7,0.3-0.7,0.7c0,0.4,0.4,0.8,0.8,0.7C36.7,37.1,37.1,36.7,37.1,36.3z"/>
	<path class="st0" d="M14.1,34.3c1.1,0,2,0.9,2,2c0,1.1-1,2.1-2.1,2c-1.1,0-2-0.9-2-2.1C12.1,35.2,13,34.3,14.1,34.3z M14.8,36.4
		c0-0.4-0.3-0.7-0.7-0.7c-0.4,0-0.7,0.3-0.8,0.7c0,0.4,0.3,0.8,0.7,0.8C14.5,37.1,14.8,36.7,14.8,36.4z"/>
	<path class="st0" d="M30.8,34.3c1.1,0,2,1,2,2.1c0,1.1-1,2-2.1,2c-1.1,0-2.1-1-2-2.1C28.8,35.2,29.7,34.3,30.8,34.3z M30.8,37.1
		c0.4,0,0.7-0.3,0.7-0.7c0-0.4-0.4-0.8-0.8-0.7c-0.4,0-0.7,0.4-0.7,0.8C30.1,36.8,30.4,37.1,30.8,37.1z"/>
	<path class="st1" d="M26.2,36.1c-0.4,0-0.7-0.3-0.7-0.7c0-0.4,0.3-0.8,0.7-0.7c0.4,0,0.7,0.3,0.7,0.7
		C26.9,35.8,26.6,36.1,26.2,36.1z"/>
	<path class="st1" d="M20.6,36.1c-0.4,0-0.7-0.3-0.7-0.7c0-0.4,0.4-0.8,0.8-0.7c0.4,0,0.7,0.4,0.7,0.8C21.4,35.8,21,36.1,20.6,36.1z
		"/>
	<path class="st1" d="M38.1,35.3c0,0.4-0.3,0.7-0.7,0.7c-0.4,0-0.8-0.4-0.8-0.7c0-0.4,0.4-0.7,0.7-0.7C37.7,34.6,38.1,35,38.1,35.3z
		"/>
	<path class="st1" d="M15.8,35.4c0,0.4-0.4,0.7-0.7,0.7c-0.4,0-0.8-0.4-0.7-0.8c0-0.4,0.4-0.7,0.8-0.7C15.5,34.6,15.8,35,15.8,35.4z
		"/>
	<path class="st1" d="M31.8,36.1c-0.4,0-0.7-0.3-0.7-0.7c0-0.4,0.3-0.7,0.7-0.8c0.4,0,0.8,0.3,0.8,0.7
		C32.5,35.7,32.2,36.1,31.8,36.1z"/>
</g>
</svg>
