<?xml version="1.0" encoding="utf-8"?>
<!-- Generator: Adobe Illustrator 25.4.1, SVG Export Plug-In . SVG Version: 6.00 Build 0)  -->
<svg version="1.1" id="Layer_1" xmlns="http://www.w3.org/2000/svg" xmlns:xlink="http://www.w3.org/1999/xlink" x="0px" y="0px"
	 viewBox="0 0 42 42" style="enable-background:new 0 0 42 42;" xml:space="preserve">
<style type="text/css">
	.st0{fill:#209894;}
	.st1{fill:#209894;fill-opacity:0.2;}
	.st2{fill:#FFFFFF;}
</style>
<g>
	<path class="st0" d="M19.1,31.8c-0.5,0-0.8,0-1.2,0c-0.1-0.5-0.1-1-0.2-1.4c-0.1-0.1-0.2-0.2-0.3-0.2c-0.6,0.7-1.2,1.3-1.7,2
		c-0.6,0.8-1.4,1.1-2.4,1c-2.1-0.1-4.2-0.1-6.3,0c-0.4,0-0.9,0.2-1.2,0.5c-0.9,0.9-2.1,1.1-3,0.2C2,33.2,2,31.8,2.9,31
		c0.9-0.8,2.2-0.6,3,0.4c0.2,0.3,0.7,0.5,1,0.5c2.1,0,4.2,0,6.3,0c0.7,0,1.2-0.1,1.6-0.7c0.3-0.3,0.6-0.6,0.9-0.9c0.6-0.5,1-1,0.9-2
		c-0.1-1.2,0.9-2,2.2-1.9c0.4,0,0.8-0.1,1.2-0.2c0-0.1,0-0.2,0-0.3c-0.6-0.3-1.3-0.6-1.9-0.8c-0.2-0.1-0.6,0-0.7,0.2
		c-0.5,0.4-0.9,0.8-1.3,1.3c-1.4,1.4-1.4,1.4-3.5,1.2c0-0.4,0-0.7,0-1c0.7-0.2,1.5-0.4,2.1-0.7c0.6-0.4,1.1-1,1.7-1.6
		c-0.8-0.6-2.2-0.5-1.8-2.1c-2.7,0-5.3,0-7.9,0c-0.2,0-0.5,0.3-0.6,0.5c-0.8,1-2.2,1.2-3,0.4C2,22.4,2,21,2.8,20.2
		c0.9-0.9,2.2-0.7,3.1,0.4C6.1,20.8,6.4,21,6.6,21c2.6,0,5.1,0,7.7,0c0.3-1.4,0.6-2.7,1-4.1c-1.8,0-3.6,0-5.5,0c0-0.4,0-0.8,0-1.3
		c0.7,0,1.4,0,2.2,0c1,0,2-0.1,3,0c1,0.1,1.5-0.2,1.8-1.2c-0.8-0.8-1.7-1.6-2.6-2.3c-0.8-0.6-1.2-1.3-1-2.3c0.1-0.6,0-1.1-0.6-1.5
		c-1-0.7-0.9-2-0.1-2.9c0.8-0.8,2-0.8,2.8,0c0.8,0.8,0.8,2.1-0.1,2.9c-1,0.9-1,2,0,2.9c0.8,0.8,1.7,1.5,2.5,2.2
		c0.7-0.6,1.4-1.2,2.2-1.9c-0.7-0.6-1.4-1.1-2-1.8c-0.3-0.4-0.6-1-0.7-1.5c-0.1-0.7,0-1.5,0-2.2c0-0.8,0-1.4-0.8-2
		c-0.9-0.7-0.8-2,0.1-2.8c0.8-0.7,2-0.7,2.8,0c0.8,0.8,0.9,2.1,0,2.8c-0.7,0.5-0.7,1.1-0.7,1.8c0,0,0,0.1,0,0.1c0,2.8,0,2.8,2.2,4.5
		c0.2,0.1,0.5,0.3,0.7,0.2c2.1-1,4.2-1.3,6.6-1.1c0-0.7,0-1.3,0-2c0.5,0,0.8,0,1.4,0c0,0.4,0,1,0,1.4c-0.1,0.6,0.2,0.9,0.8,1
		c4.4,1.4,7.2,4.3,8.4,8.8c0.2,0.9,0.3,1.9,0.3,2.9c0,3.7,0,7.5,0,11.2c0,1-0.2,1.7-1,2.4c-1.9,1.8-1.3,1.8-3.5,0.4
		c-2-1.3-3.9-2.5-5.9-3.8c-1,0.4-1.2,1-1.2,2c0,0.6-0.2,1.4-0.7,1.9c-1.4,1.6-2.6,3.3-1.9,5.6c-0.6,0-0.9,0-1.4,0c0-1.1,0-2.3,0-3.4
		c0-0.3,0.3-0.7,0.6-1c0.5-0.6,0.9-1.3,1.5-1.9c0.7-0.7,0.6-1.5,0.6-2.3c0-0.2-0.1-0.4-0.3-0.5c-1.1-0.7-1.3-1.7-0.9-2.9
		c-1.5-0.6-0.7-1.9-1-2.9c-0.5,0-0.5,0-0.7,1.9c-0.4,0-0.7,0-1.2,0c0-0.6-0.1-1.3-0.1-1.9c-1,0.2-1.4,0.8-1.4,1.7
		c0,0.5-0.1,1.2-0.4,1.5C19.4,30.3,18.9,30.9,19.1,31.8z M37.1,19.3c0-0.1,0-0.2,0-0.3c-1.2-4-3.8-6.7-7.9-7.8
		c-0.3-0.1-0.8,0.1-1,0.3c-1.1,0.9-2.1,1.8-3.2,2.7c-0.8,0.7-0.8,1.7,0.2,2.2c2.1,1.3,3.1,3.6,2.5,5.9c-0.4,1.7,0.3,2.4,1.9,2
		c-0.8-3.3-0.3-6.7-0.4-10.1c0-0.5,0.4-0.8,1-0.5c0.9,0.4,1.7,0.8,2.6,1.3c0.2,0.1,0.4,0.4,0.4,0.6C33.5,17.9,35.2,18.7,37.1,19.3z
		 M37,34.1c-0.5-0.3-0.9-0.5-1.4-0.7c-0.7-0.3-1-0.7-0.9-1.4c0-0.3,0-0.7,0-1.1c0-1.8-0.8-3.1-2.3-3.9c-0.4-0.2-0.8-0.6-1.2-0.8
		c-0.4-0.2-0.8-0.4-1.3-0.5c-1.2-0.1-2.6,0.4-3.2-1.2c-1.4,0.6-1.8,1.7-1.6,3c0.1,0.3,0.3,0.8,0.5,0.8c1.6,0,2.6,0.6,3.1,2.1
		c2.4,1.5,4.7,3.1,7.2,4.6C36.4,34.7,36.7,34.5,37,34.1z M37.4,22.1c0.3-0.8,0.1-1.3-0.7-1.5c-0.7-0.2-1.3-0.5-2-0.8
		c-1.3-0.6-2.2-1.6-2.4-2.9c-0.2-1-0.8-1.2-1.6-1.5c0,2.4-0.1,4.8,0,7.1c0.1,1.5,1,2.6,2.3,3.3c2.1,1.2,3.2,2.9,3,5.3
		c-0.1,1.1,0.6,1.3,1.4,1.5c0-2.3,0-4.6,0-6.6c-1.1-0.4-2-0.7-3-1c-1.5-0.4-1.9-1.4-1.7-2.9c0.1-1,0.3-1.2,1.3-0.9
		C35.2,21.5,36.3,21.8,37.4,22.1z M18.5,21c0,2.3,1.8,4.2,4.1,4.2c2.2,0,4-1.8,4.1-4.1c0-2.3-1.8-4.2-4.1-4.2
		C20.3,16.9,18.5,18.7,18.5,21z M20.9,12.3c-0.9,0.7-1.6,1.3-2.3,2c0.5,0.5,0.9,0.8,1.3,1.2c0.2,0.2,0.5,0.4,0.8,0.4
		c0.8-0.1,1.6-0.2,2.5-0.4C23.4,13.8,21.7,13.5,20.9,12.3z M26.6,11c0-0.1-0.1-0.2-0.1-0.3c-1.4,0.3-2.8,0.6-4.5,0.9
		c0.8,0.7,1.3,1.2,1.9,1.7C24.9,12.5,25.7,11.8,26.6,11z M16.3,17.9C16.1,19,15.9,20,15.7,21c0.6,0,1,0,1.3,0
		C17.4,18.8,17.4,18.8,16.3,17.9z M37.4,24.3c0-0.9-1.1-1.4-3.3-1.6C34.1,23.6,35.8,24.5,37.4,24.3z M19.2,16.7
		c-0.2-0.2-0.4-0.4-0.7-0.6c-0.2-0.2-0.5-0.4-0.7-0.6c-0.9,1.2-0.9,1.2,0.5,2.3C18.5,17.4,18.8,17,19.2,16.7z M18.8,2.7
		C18.3,2.4,18,2,17.8,2.1c-0.2,0-0.6,0.4-0.6,0.6c0,0.2,0.4,0.6,0.6,0.6C18,3.3,18.3,3,18.8,2.7z M14.7,6.8
		c-0.4-0.3-0.7-0.7-0.9-0.7c-0.2,0-0.6,0.4-0.6,0.6c0,0.2,0.4,0.6,0.6,0.6C14,7.4,14.2,7.1,14.7,6.8z M5.2,21.6
		c-0.5-0.3-0.8-0.6-1-0.6c-0.2,0-0.6,0.4-0.6,0.7c0,0.2,0.4,0.6,0.7,0.6C4.5,22.3,4.8,22,5.2,21.6z M19.4,28.4
		c-0.5-0.3-0.7-0.6-1-0.6c-0.3,0-0.4,0.4-0.7,0.6c0.2,0.2,0.5,0.6,0.7,0.6C18.7,29.1,19,28.8,19.4,28.4z M27.6,30.6
		c-0.4-0.3-0.7-0.7-0.9-0.7c-0.2,0-0.6,0.4-0.7,0.6c0,0.2,0.3,0.6,0.6,0.7C26.8,31.2,27.1,30.8,27.6,30.6z M4.2,31.6
		c-0.3,0.4-0.6,0.7-0.6,0.9c0,0.3,0.4,0.5,0.6,0.7c0.2-0.2,0.6-0.4,0.6-0.7C4.9,32.3,4.6,32,4.2,31.6z M15.8,22.6
		c0.5,0.2,1,0.4,1.6,0.7C17.3,22.2,17.2,22.2,15.8,22.6z"/>
	<path class="st0" d="M11,26.5c0,0.5,0,0.8,0,1.3c-1.3,0-2.6,0-3.8,0c-0.5,0-0.9,0.1-1.3,0.6c-0.7,1-2.1,1.1-3,0.2
		c-0.8-0.8-0.8-2.2,0-2.9c0.8-0.8,2.3-0.7,3,0.3c0.3,0.5,0.7,0.6,1.2,0.6C8.3,26.5,9.6,26.5,11,26.5z M5.2,27.1
		c-0.4-0.3-0.7-0.6-1-0.6c-0.2,0-0.6,0.4-0.6,0.6c0,0.2,0.4,0.6,0.6,0.6C4.5,27.8,4.8,27.4,5.2,27.1z"/>
	<path class="st0" d="M8.2,15.6c0,0.5,0,0.8,0,1.2c-0.2,0-0.5,0.1-0.7,0.1c-0.8,0-1.4,0-2,0.8c-0.6,0.8-2,0.8-2.8,0.1
		c-0.7-0.7-0.8-2-0.1-2.8c0.7-0.8,2.1-1,2.7-0.3C6.1,15.7,7.1,15.6,8.2,15.6z M5.2,16.3c-0.4-0.3-0.7-0.7-0.9-0.7
		c-0.2,0-0.6,0.4-0.6,0.6c0,0.2,0.4,0.6,0.6,0.6C4.5,16.9,4.8,16.6,5.2,16.3z"/>
	<path class="st0" d="M29.3,6c-0.5,0-0.9,0-1.3,0c0.2-0.9-0.2-1.5-0.8-2.1c-0.8-0.7-0.6-2.1,0.2-2.7c0.8-0.7,2-0.7,2.7,0
		C30.8,2,31,3.3,30.1,4C29.5,4.5,29.2,5.1,29.3,6z M29.6,2.6c-0.5-0.3-0.8-0.6-1-0.6c-0.2,0-0.4,0.4-0.6,0.7
		c0.2,0.2,0.5,0.6,0.7,0.6C28.9,3.3,29.2,3,29.6,2.6z"/>
	<path class="st0" d="M21.9,32.6c0.5,0,0.8,0,1.2,0c0.2,1.2,0.3,2.3-0.6,3.2c-0.7,0.7-1.5,1.5-1.9,2.4c-0.3,0.9-0.1,2-0.1,3.1
		c-0.5,0-0.8,0-1.3,0c0.1-1.8-0.5-3.6,1.1-5.1C21.3,35.3,22.3,34.3,21.9,32.6z"/>
	<path class="st0" d="M16.6,41.3c-0.6,0-1,0-1.4,0c0-1.2,0-2.3,0-3.4c0-0.3,0.2-0.5,0.4-0.7c0.5-0.7,1.1-1.3,1.6-2
		c0.4-0.5,0.6-1.1,1-1.8c0.1,0,0.5,0,0.9,0c0.2,0.9,0.1,1.7-0.6,2.4C16.9,37.2,15.8,38.9,16.6,41.3z"/>
	<path class="st0" d="M23.1,31.1c-0.1,0-0.3,0-0.4,0.1c-0.2,0-0.4,0-0.7,0c0-0.4,0-0.8,0-1.3c0.4,0,0.7,0,1.1,0
		C23.1,30.3,23.1,30.7,23.1,31.1z"/>
	<path class="st1" d="M36.1,20.3c-2-0.6-3.6-1.4-3.8-3.8c0-0.2-0.2-0.5-0.4-0.6c-0.8-0.5-1.7-0.9-2.6-1.3c-0.5-0.2-1,0-1,0.5
		c0.1,3.4-0.4,6.7,0.4,10.1c-1.7,0.3-2.3-0.3-1.9-2c0.6-2.4-0.4-4.7-2.5-5.9c-0.9-0.6-1-1.5-0.2-2.2c1-0.9,2.1-1.8,3.2-2.7
		c0.3-0.2,0.7-0.3,1-0.3c4.1,1.1,6.7,3.8,7.9,7.8C36.2,20,36.1,20.1,36.1,20.3z"/>
	<path class="st1" d="M36,35.1c-0.4,0.4-0.6,0.7-1,1c-2.4-1.6-4.8-3.1-7.2-4.6c-0.6-1.4-1.6-2.1-3.1-2.1c-0.2,0-0.4-0.5-0.5-0.8
		c-0.3-1.3,0.1-2.4,1.6-3c0.5,1.6,1.9,1.1,3.2,1.2c0.4,0,0.9,0.3,1.3,0.5c0.4,0.2,0.8,0.6,1.2,0.8c1.6,0.8,2.3,2.2,2.3,3.9
		c0,0.4,0,0.7,0,1.1c-0.1,0.7,0.2,1.1,0.9,1.4C35.1,34.6,35.5,34.8,36,35.1z"/>
	<path class="st1" d="M36.4,23.1c-1.1-0.3-2.2-0.6-3.3-0.9c-1-0.3-1.2-0.1-1.3,0.9c-0.2,1.5,0.2,2.5,1.7,2.9c1,0.3,1.9,0.6,3,1
		c0,2,0,4.3,0,6.6c-0.8-0.2-1.5-0.4-1.4-1.5c0.2-2.4-0.9-4.2-3-5.3c-1.3-0.7-2.2-1.8-2.3-3.3c-0.1-2.4,0-4.7,0-7.1
		c0.8,0.2,1.4,0.5,1.6,1.5c0.3,1.3,1.2,2.3,2.4,2.9c0.6,0.3,1.3,0.6,2,0.8C36.5,21.8,36.7,22.3,36.4,23.1z"/>
	<path class="st1" d="M17.5,22c0-2.2,1.9-4.1,4.1-4.1c2.2,0,4.1,1.9,4.1,4.2c0,2.2-1.9,4.1-4.1,4.1C19.3,26.1,17.5,24.2,17.5,22z
		 M19.6,22c0,2,0,2,1.9,2c2.2,0,2.1,0.2,2.1-2.1c0-2,0-2-2-2C19.4,20,19.6,19.8,19.6,22z"/>
	<path class="st1" d="M19.9,13.3c0.7,1.2,2.5,1.5,2.3,3.2c-0.9,0.1-1.7,0.3-2.5,0.4c-0.3,0-0.6-0.2-0.8-0.4
		c-0.4-0.3-0.8-0.7-1.3-1.2C18.4,14.7,19.1,14.1,19.9,13.3z"/>
	<path class="st1" d="M25.6,12c-0.9,0.7-1.7,1.5-2.7,2.3c-0.6-0.5-1.1-1-1.9-1.7c1.7-0.4,3.1-0.7,4.5-0.9
		C25.5,11.8,25.6,11.9,25.6,12z"/>
	<path class="st1" d="M15.3,18.9c1.1,0.9,1.1,0.9,0.7,3.1c-0.4,0-0.7,0-1.3,0C14.9,21,15.1,20,15.3,18.9z"/>
	<path class="st1" d="M36.4,25.3c-1.6,0.1-3.3-0.7-3.3-1.6C35.3,23.9,36.4,24.5,36.4,25.3z"/>
	<path class="st1" d="M18.2,17.7c-0.3,0.4-0.6,0.7-0.9,1c-1.4-1.1-1.4-1.1-0.5-2.3c0.2,0.2,0.5,0.4,0.7,0.6
		C17.7,17.2,18,17.5,18.2,17.7z"/>
	<path class="st1" d="M17.8,3.7c-0.4,0.3-0.7,0.6-1,0.6c-0.2,0-0.6-0.4-0.6-0.6c0-0.2,0.4-0.6,0.6-0.6C17,3,17.3,3.4,17.8,3.7z"/>
	<path class="st1" d="M13.7,7.8c-0.4,0.3-0.7,0.6-1,0.6c-0.2,0-0.6-0.4-0.6-0.6c0-0.2,0.4-0.6,0.6-0.6C13,7.1,13.3,7.5,13.7,7.8z"/>
	<path class="st1" d="M4.2,22.6c-0.4,0.3-0.7,0.7-0.9,0.7c-0.2,0-0.6-0.4-0.7-0.6c0-0.2,0.3-0.6,0.6-0.7C3.4,22,3.7,22.3,4.2,22.6z"
		/>
	<path class="st1" d="M18.4,29.4c-0.4,0.3-0.7,0.7-0.9,0.7c-0.3,0-0.5-0.4-0.7-0.6c0.2-0.2,0.4-0.6,0.7-0.6
		C17.7,28.8,18,29.1,18.4,29.4z"/>
	<path class="st1" d="M26.6,31.6c-0.5,0.3-0.7,0.6-1,0.6c-0.2,0-0.6-0.4-0.6-0.7c0-0.2,0.4-0.6,0.7-0.6
		C25.9,30.9,26.1,31.2,26.6,31.6z"/>
	<path class="st1" d="M3.2,32.6c0.3,0.4,0.7,0.7,0.7,0.9c0,0.3-0.4,0.5-0.6,0.7C3,34,2.7,33.8,2.6,33.5C2.6,33.3,2.9,33,3.2,32.6z"
		/>
	<path class="st1" d="M14.8,23.6c1.4-0.5,1.5-0.4,1.6,0.7C15.8,24,15.3,23.8,14.8,23.6z"/>
	<path class="st1" d="M4.2,28.1c-0.5,0.3-0.7,0.7-1,0.7c-0.2,0-0.6-0.4-0.6-0.6c0-0.2,0.4-0.6,0.6-0.6C3.5,27.5,3.8,27.8,4.2,28.1z"
		/>
	<path class="st1" d="M4.2,17.3c-0.5,0.3-0.7,0.6-1,0.6c-0.2,0-0.6-0.4-0.6-0.6c0-0.2,0.4-0.6,0.6-0.6C3.5,16.6,3.8,17,4.2,17.3z"/>
	<path class="st1" d="M28.6,3.6c-0.4,0.3-0.7,0.7-0.9,0.7c-0.3,0-0.5-0.4-0.7-0.6c0.2-0.2,0.4-0.6,0.6-0.7C27.8,3,28.1,3.3,28.6,3.6
		z"/>
	<path class="st0" d="M20.6,21c0-2.2-0.1-2,2-2c2,0,2,0,2,2c0,2.2,0.1,2.1-2.1,2.1C20.6,23,20.6,23,20.6,21z M21.9,20.4
		c0,0.5,0,0.9,0,1.3c0.5,0,0.9,0,1.3,0c0-0.4,0-0.8,0-1.3C22.8,20.4,22.3,20.4,21.9,20.4z"/>
	<path class="st2" d="M21.9,20.4c0.4,0,0.8,0,1.3,0c0,0.4,0,0.8,0,1.3c-0.4,0-0.8,0-1.3,0C21.9,21.2,21.9,20.9,21.9,20.4z"/>
</g>
</svg>
